<?xml version="1.0" encoding="UTF-8" standalone="no"?>
<svg
   width="150"
   height="46"
   viewBox="0 0 150 46"
   role="img"
   aria-label="MyPacer"
   version="1.1"
   id="svg2"
   sodipodi:docname="mypacer.svg"
   inkscape:version="1.4.2 (f4327f4, 2025-05-13)"
   xmlns:inkscape="http://www.inkscape.org/namespaces/inkscape"
   xmlns:sodipodi="http://sodipodi.sourceforge.net/DTD/sodipodi-0.dtd"
   xmlns="http://www.w3.org/2000/svg"
   xmlns:svg="http://www.w3.org/2000/svg">
  <defs
     id="defs2" />
  <sodipodi:namedview
     id="namedview2"
     pagecolor="#ffffff"
     bordercolor="#000000"
     borderopacity="0.25"
     inkscape:showpageshadow="2"
     inkscape:pageopacity="0.0"
     inkscape:pagecheckerboard="0"
     inkscape:deskcolor="#d1d1d1"
     inkscape:zoom="3.1711957"
     inkscape:cx="-14.978578"
     inkscape:cy="12.613539"
     inkscape:window-width="2542"
     inkscape:window-height="1328"
     inkscape:window-x="3841"
     inkscape:window-y="16"
     inkscape:window-maximized="0"
     inkscape:current-layer="svg2" />
  <!-- Fond bleu derrière "My" -->
  <rect
     x="0"
     y="3"
     width="60"
     height="40"
     fill="#03A9F4"
     id="rect1" />
  <!-- Texte aligné sur la même baseline -->
  <path
     d="M 9.734375,33 V 9.71875 H 16.75 l 3.84375,10.84375 q 0.234375,0.734375 0.5625,1.8125 0.328125,1.0625 0.671875,2.234375 0.34375,1.15625 0.625,2.21875 0.296875,1.0625 0.484375,1.765625 h -1.203125 q 0.1875,-0.703125 0.46875,-1.765625 Q 22.5,25.765625 22.84375,24.609375 23.1875,23.4375 23.5,22.375 23.828125,21.296875 24.046875,20.5625 L 27.84375,9.71875 h 7.015625 V 33 h -4.71875 V 21.9375 q 0,-0.78125 0.03125,-1.859375 0.03125,-1.078125 0.0625,-2.296875 0.03125,-1.234375 0.0625,-2.484375 0.03125,-1.265625 0.04687,-2.390625 h 0.578125 q -0.359375,1.234375 -0.75,2.53125 -0.375,1.296875 -0.734375,2.515625 -0.359375,1.21875 -0.6875,2.25 -0.3125,1.015625 -0.546875,1.734375 L 24.265625,33 h -3.90625 L 16.375,21.9375 q -0.234375,-0.71875 -0.5625,-1.734375 -0.328125,-1.03125 -0.703125,-2.25 Q 14.75,16.734375 14.34375,15.4375 13.953125,14.140625 13.578125,12.90625 h 0.6875 q 0.01563,1.125 0.04687,2.390625 0.03125,1.25 0.0625,2.484375 0.03125,1.21875 0.04687,2.296875 0.03125,1.078125 0.03125,1.859375 V 33 Z m 29.146851,6.53125 v -3.640625 h 2.09375 q 0.5625,0 0.90625,-0.171875 0.34375,-0.171875 0.578125,-0.5625 0.25,-0.375 0.46875,-1.015625 L 43.381226,32.9375 37.037476,16.5 h 4.828125 l 2.765625,8.15625 q 0.46875,1.4375 0.90625,2.90625 0.4375,1.453125 0.84375,2.921875 h -1.28125 q 0.390625,-1.46875 0.828125,-2.921875 0.4375,-1.46875 0.90625,-2.90625 L 49.615601,16.5 h 4.78125 l -7.265625,19.046875 q -0.515625,1.375 -1.25,2.25 -0.71875,0.890625 -1.703125,1.3125 -0.96875,0.421875 -2.25,0.421875 -0.75,0 -1.53125,0 -0.765625,0 -1.515625,0 z"
     id="text1"
     class="brand"
     style="fill:#ffffff"
     aria-label="My" />
  <path
     d="M 61.734375,33 V 9.71875 h 9.1875 q 2.625,0 4.53125,0.9375 1.90625,0.921875 2.9375,2.640625 Q 79.4375,15 79.4375,17.359375 q 0,2.34375 -1.046875,4.0625 Q 77.34375,23.125 75.40625,24.0625 73.484375,25 70.859375,25 H 64.40625 v -4.03125 h 6.203125 q 1.28125,0 2.203125,-0.4375 0.921875,-0.453125 1.421875,-1.265625 0.5,-0.8125 0.5,-1.90625 0,-1.125 -0.5,-1.921875 -0.5,-0.796875 -1.421875,-1.234375 Q 71.890625,13.75 70.609375,13.75 h -4.0625 V 33 Z m 24.443726,0.28125 q -1.640625,0 -2.921875,-0.546875 -1.28125,-0.546875 -2.015625,-1.640625 -0.734375,-1.109375 -0.734375,-2.75 0,-1.390625 0.515625,-2.3125 0.515625,-0.9375 1.40625,-1.5 0.90625,-0.578125 2.0625,-0.875 1.171875,-0.296875 2.453125,-0.40625 1.515625,-0.15625 2.40625,-0.296875 0.890625,-0.140625 1.28125,-0.40625 Q 91.021851,22.28125 91.021851,21.75 v -0.109375 q 0,-0.609375 -0.328125,-1.0625 -0.328125,-0.46875 -0.9375,-0.734375 -0.59375,-0.265625 -1.4375,-0.265625 -0.84375,0 -1.5,0.265625 -0.640625,0.265625 -1.015625,0.75 -0.375,0.484375 -0.4375,1.125 h -4.328125 q 0.109375,-1.703125 1,-2.953125 0.90625,-1.25 2.53125,-1.921875 1.625,-0.6875 3.890625,-0.6875 1.6875,0 3.015625,0.390625 1.328125,0.375 2.234375,1.109375 0.921875,0.734375 1.390625,1.78125 0.46875,1.046875 0.46875,2.375 V 33 h -4.5 v -2.328125 h -0.0625 q -0.4375,0.8125 -1.078125,1.390625 -0.640625,0.578125 -1.5625,0.90625 -0.921875,0.3125 -2.1875,0.3125 z m 1.28125,-3.203125 q 1.109375,0 1.90625,-0.40625 0.8125,-0.40625 1.25,-1.109375 0.4375,-0.703125 0.4375,-1.59375 V 25.3125 q -0.203125,0.109375 -0.53125,0.21875 -0.328125,0.09375 -0.765625,0.1875 -0.4375,0.07813 -0.953125,0.171875 -0.515625,0.09375 -1.0625,0.171875 -0.796875,0.125 -1.4375,0.390625 -0.640625,0.25 -1.015625,0.6875 -0.375,0.421875 -0.375,1.078125 0,0.578125 0.3125,1 0.3125,0.421875 0.890625,0.640625 0.578125,0.21875 1.34375,0.21875 z M 106.38123,33.375 q -2.46875,0 -4.34375,-1.078125 -1.85938,-1.09375 -2.906254,-3.03125 -1.03125,-1.953125 -1.03125,-4.5 0,-2.5625 1.03125,-4.5 1.046874,-1.953125 2.906254,-3.046875 1.875,-1.09375 4.34375,-1.09375 1.625,0 3,0.484375 1.375,0.46875 2.39062,1.34375 1.03125,0.875 1.64063,2.078125 0.60937,1.1875 0.71875,2.640625 h -4.45313 q -0.0937,-0.640625 -0.35937,-1.15625 Q 109.06873,21 108.66248,20.625 q -0.40625,-0.375 -0.96875,-0.578125 -0.54688,-0.203125 -1.25,-0.203125 -1.15625,0 -1.98438,0.609375 -0.82812,0.59375 -1.28125,1.703125 -0.4375,1.09375 -0.4375,2.609375 0,1.5 0.4375,2.59375 0.45313,1.09375 1.28125,1.703125 0.82813,0.59375 1.98438,0.59375 0.70312,0 1.25,-0.203125 0.54687,-0.203125 0.9375,-0.578125 0.40625,-0.375 0.65625,-0.890625 0.25,-0.53125 0.35937,-1.1875 h 4.48438 q -0.0781,1.4375 -0.6875,2.640625 -0.59375,1.1875 -1.625,2.078125 -1.03125,0.890625 -2.42188,1.375 -1.375,0.484375 -3.01562,0.484375 z m 17.73437,0 q -2.5,0 -4.35937,-1.09375 -1.84375,-1.109375 -2.875,-3.0625 -1.01563,-1.953125 -1.01563,-4.453125 0,-2.53125 1.03125,-4.46875 1.04688,-1.953125 2.875,-3.0625 1.82813,-1.109375 4.1875,-1.109375 1.82813,0 3.3125,0.625 1.48438,0.609375 2.5625,1.765625 1.07813,1.140625 1.65625,2.703125 0.59375,1.5625 0.59375,3.453125 v 1.234375 h -14.57812 v -2.9375 h 12.35937 l -2.07812,0.703125 q 0,-1.25 -0.45313,-2.15625 -0.45312,-0.90625 -1.29687,-1.390625 -0.82813,-0.5 -1.98438,-0.5 -1.14062,0 -1.96875,0.5 -0.82812,0.484375 -1.28125,1.390625 -0.45312,0.90625 -0.45312,2.15625 v 2 q 0,1.28125 0.45312,2.25 0.46875,0.953125 1.34375,1.484375 0.875,0.515625 2.10938,0.515625 0.90625,0 1.59375,-0.25 0.70312,-0.265625 1.17187,-0.734375 0.48438,-0.484375 0.6875,-1.125 h 4.20313 q -0.29688,1.640625 -1.39063,2.890625 -1.09375,1.25 -2.75,1.96875 Q 126.1156,33.375 124.1156,33.375 Z M 134.5531,33 V 16.5 h 4.4375 v 2.8125 h 0.0469 q 0.45312,-1.484375 1.42187,-2.203125 0.96875,-0.71875 2.60938,-0.71875 0.40625,0 0.73437,0.01563 0.34375,0 0.625,0.01563 v 3.921875 q -0.25,-0.01563 -0.82812,-0.04687 -0.5625,-0.03125 -1.15625,-0.03125 -0.9375,0 -1.6875,0.4375 -0.75,0.421875 -1.17188,1.265625 -0.42187,0.84375 -0.42187,2.09375 V 33 Z"
     id="text2"
     class="brand"
     style="fill:#03a9f4"
     aria-label="Pacer" />
</svg>
